<svg xmlns="http://www.w3.org/2000/svg" width="339" height="105" fill="none" viewBox="0 0 339 105"><path fill="#1BA0E2" d="M-121.237-17.997c2.348-3.885 6.719 82.869 6.719 82.869s81.347 43.125 254.578-36.277c173.231-79.401 232.958 52.555 348.543-3.677C604.189-31.314 664.121-51.386 742.139-55.13c78.017-3.744 379.081 2.038 388.671 21.769l-7.21-88.909L-118.592-18.219" opacity=".1"/><path fill="#1BA0E2" d="M1024.86-117.071s5.4 66.582 6.24 76.985c-2.23 2.691-228.273 48.048-359.635 37.764C540.102-12.604 510.499-30.578 427.38-5.946 344.127 18.698 342.923 47.46 207.2 50.48 71.478 53.5 49.49-46.64-48.06 51.55l-6.342-78.217 1079.262-90.403Z" opacity=".1"/><path fill="#1BA0E2" d="M964.354-58.241s-36.867.781-126.13 50.768C748.96 42.515 703.292 42.495 651.13 30.937 598.968 19.379 498.812-9.47 437.569 13.895c-61.243 23.364-111.512 23.73-224.907-10.05-113.518-33.66-137.515 99.724-328.146 71.644l-5.954-73.427L961.886-88.681" opacity=".1"/></svg>